Coordinates
version=1
nRows=29
nColumns=24
inDegrees=yes

Units are S.I. units (second, meters, Newtons, ...)
Angles are in degrees.

endheader
time	pelvis_tilt	pelvis_list	pelvis_rotation	pelvis_tx	pelvis_ty	pelvis_tz	hip_flexion_r	hip_adduction_r	hip_rotation_r	knee_angle_r	ankle_angle_r	subtalar_angle_r	mtp_angle_r	hip_flexion_l	hip_adduction_l	hip_rotation_l	knee_angle_l	ankle_angle_l	subtalar_angle_l	mtp_angle_l	lumbar_extension	lumbar_bending	lumbar_rotation
      4.58000000	      6.13336624	      0.50925235	     -4.13972579	      0.89911570	      1.00874813	      0.01956903	    -11.85844305	     -6.05138509	     -4.46260186	    -39.15875535	      1.89650048	      4.80774970	     34.53335865	     12.92986518	      1.35982085	     -8.75680173	    -15.39684333	     -1.39882879	      2.43748537	     17.80439385	    -14.40269848	      0.60017640	      3.82775256
      4.58500000	      5.99230036	      0.63166340	     -4.27808359	      0.90403304	      1.00951514	      0.01902878	    -10.73215135	     -6.32692204	     -4.25644331	    -40.87990610	      1.26178270	      4.27408747	     33.95753744	     12.62782465	      1.51722353	     -8.98532518	    -15.14723358	     -1.19066592	      2.62445200	     17.59250937	    -14.26483759	      0.45000332	      3.90779624
      4.59000000	      5.88620249	      0.77816049	     -4.34297902	      0.90892752	      1.01028712	      0.01840829	     -9.66041536	     -6.61204465	     -4.14252835	    -42.58146963	      1.02158251	      3.92108432	     30.51765897	     12.29974600	      1.72221925	     -9.10998450	    -14.90334995	     -0.86291581	      2.89644817	     15.95667951	    -14.16369414	      0.28384462	      3.90176957
      4.59500000	      5.82384564	      0.91399415	     -4.52514765	      0.91377733	      1.01111593	      0.01800800	     -8.60611845	     -6.88240120	     -3.87719772	    -44.21664317	      0.53249074	      3.27987956	     30.22120350	     11.89838236	      1.88982071	     -9.39178818	    -14.61380139	     -0.68878402	      3.11342125	     15.90007913	    -14.11489037	      0.09812186	      4.00166563
      4.60000000	      5.70439822	      1.03702615	     -4.63013969	      0.91852916	      1.01182373	      0.01751586	     -7.49281083	     -7.11190401	     -3.68577808	    -45.84020794	      0.35786766	      2.77017622	     27.73828838	     11.59607450	      2.05876434	     -9.52902714	    -14.37819172	     -0.43168005	      3.32138292	     14.80760523	    -14.00794440	     -0.05315287	      4.02460765
      4.60500000	      5.63026651	      1.15133663	     -4.78806253	      0.92328327	      1.01258830	      0.01717563	     -6.43291015	     -7.31473866	     -3.41773292	    -47.37453893	      0.10275168	      2.08764569	     27.26761074	     11.23161411	      2.20219859	     -9.76630999	    -14.12701743	     -0.22006759	      3.60439509	     14.63191813	    -13.95080789	     -0.21651901	      4.09377696
      4.61000000	      5.55252093	      1.26753381	     -4.92380949	      0.92795343	      1.01331777	      0.01678545	     -5.36434065	     -7.50768435	     -3.17108139	    -48.88091406	      0.07302926	      1.49738456	     25.38488980	     10.88606717	      2.36733071	     -9.90038918	    -13.88427416	      0.03134320	      3.70791943	     13.53705690	    -13.89398557	     -0.37306197	      4.14913234
      4.61500000	      5.54933584	      1.37960724	     -5.11225813	      0.93266538	      1.01414567	      0.01651764	     -4.38711025	     -7.69326962	     -2.87640954	    -50.28663867	     -0.06140923	      0.83570108	     25.17731478	     10.43402354	      2.51927716	    -10.13851703	    -13.59888680	      0.17712176	      3.89055213	     13.45379331	    -13.91429021	     -0.54527092	      4.23795912
      4.62000000	      5.46502539	      1.47578908	     -5.22081789	      0.93726221	      1.01481882	      0.01615692	     -3.32973594	     -7.83200733	     -2.64977667	    -51.66376318	      0.05780764	      0.26053026	     23.65021042	     10.10905135	      2.66404831	    -10.22470099	    -13.37231495	      0.42308788	      4.03032047	     12.38883022	    -13.85782064	     -0.67715994	      4.25193830
      4.62500000	      5.48594996	      1.57494080	     -5.39494056	      0.94190529	      1.01564313	      0.01592590	     -2.39654858	     -7.97544507	     -2.36276028	    -52.93575496	      0.08175586	     -0.35226046	     23.52650400	      9.63314288	      2.80942497	    -10.42991539	    -13.07363617	      0.53271224	      4.21072892	     12.32829581	    -13.90841711	     -0.83725693	      4.33628189
      4.63000000	      5.42590567	      1.65249055	     -5.54375725	      0.94642768	      1.01629192	      0.01568151	     -1.36813251	     -8.06910985	     -2.08224788	    -54.17792357	      0.23756488	     -0.89834650	     23.23661668	      9.29594130	      2.92439257	    -10.58930343	    -12.87520594	      0.74939605	      4.34666019	     12.08189220	    -13.88247450	     -0.96171188	      4.38460381
      4.63500000	      5.39500989	      1.73855625	     -5.64635807	      0.95095501	      1.01697402	      0.01534339	     -0.39715527	     -8.17144250	     -1.86056612	    -55.34228083	      0.50181339	     -1.33538469	     21.91174464	      8.91349299	      3.06948386	    -10.65812779	    -12.63454305	      1.03761466	      4.51171004	     10.63940630	    -13.89002354	     -1.08299025	      4.39111455
      4.64000000	      5.43016339	      1.81630464	     -5.77988900	      0.95551003	      1.01773440	      0.01510876	      0.48144718	     -8.25754677	     -1.60999497	    -56.40474573	      0.73866754	     -1.77155814	     21.86194600	      8.44213177	      3.20276112	    -10.81537750	    -12.35968082	      1.15156537	      4.67193382	     10.57963971	    -13.96442760	     -1.21242104	      4.42843469
      4.64500000	      5.42572103	      1.89767007	     -5.89234601	      0.96004478	      1.01841729	      0.01484850	      1.39573004	     -8.33628215	     -1.38336185	    -57.40694683	      0.97789847	     -2.16159870	     21.80656077	      8.01629069	      3.34371475	    -10.91645626	    -12.08259115	      1.26740177	      4.78184757	     10.48459648	    -13.99579741	     -1.33799025	      4.44090219
      4.65000000	      5.37594449	      1.94308455	     -5.99296689	      0.96443833	      1.01898280	      0.01458327	      2.35854165	     -8.35068265	     -1.14039721	    -58.35791652	      1.31686374	     -2.44482168	     21.71472415	      7.68693361	      3.43527114	    -11.02327762	    -11.89043960	      1.44190988	      4.90353784	     10.27325498	    -13.99831089	     -1.41411421	      4.46665497
      4.65500000	      5.37569987	      2.00843609	     -6.07836444	      0.96889782	      1.01960789	      0.01430497	      3.24048324	     -8.39222879	     -0.93189611	    -59.22006150	      1.65604685	     -2.66567255	     21.61905252	      7.27885136	      3.56088436	    -11.11670378	    -11.65124605	      1.59960535	      5.04119078	     10.01313758	    -14.04316605	     -1.51368434	      4.46297945
      4.66000000	      5.35701444	      2.05062486	     -6.13922154	      0.97333095	      1.02018733	      0.01402412	      4.11851155	     -8.39374701	     -0.74229839	    -60.00208579	      2.03167483	     -2.80849533	     21.49910382	      6.90202146	      3.65911881	    -11.20050011	    -11.42937619	      1.78939962	      5.19788024	      9.63483618	    -14.07418511	     -1.58218153	      4.44111883
      4.66500000	      5.38078816	      2.10782748	     -6.16423282	      0.97784331	      1.02081386	      0.01369137	      4.91395045	     -8.42224308	     -0.61217192	    -60.68834375	      2.36064978	     -2.92948045	     21.46897011	      6.46067781	      3.78652758	    -11.26107647	    -11.17371081	      1.93462588	      5.36992423	      9.47186949	    -14.14375854	     -1.66068366	      4.36002023
      4.67000000	      5.29534693	      2.12409301	     -6.16914848	      0.98218562	      1.02123396	      0.01336240	      5.83294899	     -8.36904326	     -0.47054760	    -61.34124770	      2.77063959	     -2.99076668	     21.11001947	      6.20077611	      3.84619793	    -11.29321495	    -11.04607441	      2.29565321	      5.60275253	      8.32516421	    -14.11432481	     -1.67963053	      4.30301919
      4.67500000	      5.37818215	      2.16084614	     -6.16680816	      0.98665866	      1.02190225	      0.01303882	      6.51361982	     -8.36497228	     -0.36457632	    -61.86447847	      3.20322456	     -2.94309360	     21.14641707	      5.69871918	      3.95857379	    -11.35254450	    -10.79249926	      2.39672446	      5.76002315	      8.27107520	    -14.25590817	     -1.73804146	      4.20528681
      4.68000000	      5.38693339	      2.17809996	     -6.17696987	      0.99115562	      1.02244428	      0.01272570	      7.26584848	     -8.32589577	     -0.24630359	    -62.32553570	      3.58879272	     -2.83474019	     21.15996656	      5.28476832	      4.03647087	    -11.44007282	    -10.56429212	      2.57308203	      5.97764952	      8.16801285	    -14.31016880	     -1.76388058	      4.15886020
      4.68500000	      5.38444198	      2.18649904	     -6.13549160	      0.99559563	      1.02294025	      0.01237187	      8.00274708	     -8.27000029	     -0.17823189	    -62.71480752	      3.99113378	     -2.72974804	     21.16228761	      4.90333921	      4.10385739	    -11.47090425	    -10.37090098	      2.75535453	      6.18663141	      8.04890248	    -14.36258876	     -1.76989379	      4.05091457
      4.69000000	      5.39968384	      2.18726127	     -6.08055569	      1.00004348	      1.02344543	      0.01202828	      8.69326106	     -8.20338572	     -0.12872933	    -63.02402441	      4.39237069	     -2.59690728	     21.14553645	      4.50526505	      4.16213001	    -11.51319322	    -10.18388510	      2.94398586	      6.41869368	      7.90434564	    -14.43566026	     -1.76810683	      3.93570087
      4.69500000	      5.41169966	      2.18467807	     -6.00074802	      1.00449086	      1.02393237	      0.01165247	      9.36107921	     -8.13360002	     -0.10857848	    -63.25720119	      4.79176480	     -2.44755354	     21.12170866	      4.12018982	      4.21665057	    -11.51919299	    -10.01559963	      3.13402825	      6.64072719	      7.77349564	    -14.50301027	     -1.75375881	      3.78674257
      4.70000000	      5.42643264	      2.17132817	     -5.90339232	      1.00895497	      1.02440420	      0.01127227	      9.99480514	     -8.05091773	     -0.11612685	    -63.40923211	      5.19801974	     -2.32680430	     21.10397613	      3.73169042	      4.25874831	    -11.51272053	     -9.85155775	      3.31875877	      6.85726871	      7.67857893	    -14.57585590	     -1.72399447	      3.62654638
      4.70500000	      5.44242173	      2.15785079	     -5.78952875	      1.01344684	      1.02485931	      0.01087838	     10.60295676	     -7.97230262	     -0.14182733	    -63.49169675	      5.56664078	     -2.13664974	     21.04696304	      3.33723878	      4.30041413	    -11.50061044	     -9.67717096	      3.51804933	      7.10004453	      7.54652655	    -14.64468093	     -1.68884109	      3.45827701
      4.71000000	      5.46777948	      2.12690454	     -5.65985625	      1.01794965	      1.02532722	      0.01050244	     11.16618350	     -7.87104257	     -0.19391261	    -63.48753756	      5.93483478	     -2.00494106	     20.97554710	      2.93417938	      4.32085385	    -11.47048695	     -9.51455174	      3.71917405	      7.33338511	      7.42297501	    -14.72215152	     -1.63391759	      3.27824283
      4.71500000	      5.57572841	      2.07707258	     -5.54725659	      1.02252484	      1.02591858	      0.01015735	     11.60463119	     -7.75657583	     -0.24131570	    -63.40179717	      6.42815819	     -1.75507980	     19.54916603	      2.41665299	      4.32833325	    -11.46108294	     -9.32719506	      4.10913491	      7.68084422	      5.71337712	    -14.88676466	     -1.56657374	      3.13500802
      4.72000000	      5.56988220	      2.06002388	     -5.37535377	      1.02703153	      1.02627762	      0.00974155	     12.16234622	     -7.67858815	     -0.34861410	    -63.27631062	      6.74392903	     -1.67380223	     19.54746353	      2.06602508	      4.35696252	    -11.37768355	     -9.19532949	      4.31687403	      7.89013928	      5.72956689	    -14.92721134	     -1.51238651	      2.91212002
